<svg width="946" height="684" viewBox="0 0 946 684" fill="none" xmlns="http://www.w3.org/2000/svg">
<path d="M22.9326 595.446C15.795 595.446 10.1769 592.568 6.07853 586.811C2.02618 581.009 0 571.523 0 558.353V506.547C0 501.205 0.43747 496.37 1.31241 492.042C2.18735 487.713 3.61488 484.006 5.59501 480.921C7.57513 477.835 10.223 475.487 13.5385 473.875C16.9002 472.217 21.0216 471.388 25.9028 471.388C31.1064 471.388 35.2739 472.217 38.4052 473.875C41.5827 475.533 44.0003 477.927 45.658 481.059C47.3619 484.144 48.4901 487.897 49.0427 492.318C49.6413 496.693 49.9406 501.597 49.9406 507.031V516.079H34.6752V501.574C34.6752 495.864 34.0996 491.719 32.9484 489.14C31.7971 486.516 29.4947 485.203 26.041 485.203C22.311 485.203 19.7092 486.746 18.2356 489.831C16.8081 492.87 16.0943 498.304 16.0943 506.133V557.938C16.0943 566.55 16.6929 572.72 17.8902 576.45C19.1335 580.134 21.7123 581.976 25.6265 581.976C29.4026 581.976 32.0044 580.111 33.4319 576.381C34.8594 572.605 35.5732 566.319 35.5732 557.524V541.43H25.9028V529.411H49.9406V594.271H42.0662L39.7867 583.841C38.5894 587.571 36.4942 590.449 33.501 592.475C30.5078 594.456 26.985 595.446 22.9326 595.446Z" fill="#345E40"/>
<path d="M68.0381 594.271V472.701H84.0633V580.802H106.927V594.271H68.0381Z" fill="#345E40"/>
<path d="M111.002 594.271L128.962 472.701H149.2L168.61 594.271H153.552L150.305 571.684H129.307L126.337 594.271H111.002ZM130.965 558.767H148.44L139.461 495.841H139.254L130.965 558.767Z" fill="#345E40"/>
<path d="M181.043 594.271V472.701H200.246L218.343 566.434L235.543 472.701H254.815V594.271H240.862V548.544L241.829 504.751L224.284 594.064H212.196L193.96 504.751L194.927 548.544V594.271H181.043Z" fill="#345E40"/>
<path d="M298.124 595.653C291.954 595.653 287.003 594.317 283.273 591.647C279.543 588.976 276.849 584.992 275.192 579.697C273.534 574.355 272.705 567.701 272.705 559.734V505.304C272.705 498.304 273.488 492.272 275.053 487.206C276.665 482.095 279.336 478.158 283.066 475.395C286.796 472.586 291.908 471.181 298.4 471.181C303.282 471.181 307.311 471.987 310.488 473.599C313.712 475.164 316.245 477.444 318.087 480.437C319.929 483.384 321.218 486.953 321.955 491.144C322.738 495.334 323.129 500.054 323.129 505.304V559.734C323.129 567.701 322.323 574.355 320.711 579.697C319.146 584.992 316.521 588.976 312.837 591.647C309.199 594.317 304.295 595.653 298.124 595.653ZM298.124 581.769C300.611 581.769 302.499 581.055 303.788 579.628C305.078 578.2 305.953 575.875 306.413 572.651C306.874 569.428 307.104 565.168 307.104 559.872V504.475C307.104 498.028 306.551 493.193 305.446 489.969C304.341 486.7 301.992 485.065 298.4 485.065C294.67 485.065 292.138 486.654 290.802 489.831C289.467 493.009 288.799 497.867 288.799 504.406V559.872C288.799 565.214 289.029 569.497 289.49 572.72C289.95 575.898 290.848 578.2 292.184 579.628C293.565 581.055 295.545 581.769 298.124 581.769Z" fill="#345E40"/>
<path d="M365.333 595.722C359.209 595.722 354.281 594.548 350.551 592.199C346.868 589.805 344.197 586.19 342.539 581.354C340.881 576.519 340.052 570.418 340.052 563.05V472.701H356.146V562.704C356.146 566.665 356.285 570.095 356.561 572.996C356.883 575.898 357.689 578.131 358.979 579.697C360.268 581.262 362.386 582.045 365.333 582.045C368.281 582.045 370.376 581.285 371.619 579.766C372.909 578.2 373.691 575.967 373.968 573.066C374.244 570.164 374.382 566.734 374.382 562.774V472.701H390.407V563.05C390.407 570.418 389.601 576.519 387.99 581.354C386.378 586.19 383.73 589.805 380.046 592.199C376.408 594.548 371.504 595.722 365.333 595.722Z" fill="#345E40"/>
<path d="M408.712 594.271V472.701H436.342C442.742 472.701 447.486 473.898 450.571 476.293C453.702 478.641 455.751 482.164 456.719 486.861C457.686 491.512 458.169 497.291 458.169 504.199C458.169 511.567 457.409 517.392 455.89 521.674C454.416 525.911 451.469 528.697 447.048 530.032C449.212 530.401 451.008 531.322 452.436 532.795C453.909 534.223 455.061 536.433 455.89 539.426C456.765 542.374 457.386 546.288 457.755 551.169C458.123 556.004 458.307 562.037 458.307 569.267C458.307 569.911 458.307 571.108 458.307 572.858C458.307 574.608 458.307 576.588 458.307 578.799C458.353 581.009 458.399 583.219 458.445 585.43C458.537 587.594 458.63 589.482 458.722 591.094C458.86 592.706 459.021 593.765 459.205 594.271H443.18C443.042 593.949 442.904 592.936 442.766 591.232C442.673 589.482 442.581 587.226 442.489 584.463C442.397 581.7 442.328 578.592 442.282 575.138C442.282 571.638 442.282 567.954 442.282 564.086C442.282 560.172 442.282 556.211 442.282 552.205C442.282 548.015 442.052 544.837 441.591 542.673C441.131 540.463 440.187 538.943 438.759 538.114C437.332 537.239 435.144 536.71 432.197 536.525L424.737 536.111V594.271H408.712ZM424.806 524.023H433.164C435.651 524.023 437.539 523.516 438.828 522.503C440.164 521.444 441.062 519.441 441.522 516.494C442.029 513.547 442.282 509.195 442.282 503.439V502.679C442.282 497.844 442.052 494.183 441.591 491.696C441.131 489.21 440.21 487.529 438.828 486.654C437.493 485.733 435.444 485.272 432.681 485.272H424.806V524.023Z" fill="#345E40"/>
<path d="M529.246 595.722C523.352 595.722 518.563 594.317 514.879 591.508C511.195 588.699 508.501 584.578 506.797 579.144C505.093 573.71 504.242 567.125 504.242 559.389V507.79C504.242 502.311 504.633 497.36 505.416 492.94C506.199 488.473 507.534 484.628 509.422 481.404C511.356 478.181 513.958 475.717 517.228 474.013C520.543 472.263 524.711 471.388 529.73 471.388C534.381 471.388 538.249 472.194 541.334 473.806C544.466 475.372 546.929 477.651 548.725 480.644C550.567 483.638 551.857 487.206 552.594 491.351C553.376 495.495 553.768 500.1 553.768 505.166V520.017H538.157V505.649C538.157 498.742 537.627 493.607 536.568 490.246C535.509 486.884 533.23 485.203 529.73 485.203C526 485.203 523.49 486.953 522.201 490.453C520.957 493.953 520.336 498.995 520.336 505.58V559.941C520.336 565.145 520.589 569.382 521.096 572.651C521.602 575.875 522.5 578.246 523.79 579.766C525.079 581.239 526.921 581.976 529.315 581.976C532.861 581.976 535.21 580.249 536.361 576.796C537.558 573.296 538.157 567.632 538.157 559.803V544.676H553.975V559.596C553.975 567.563 553.192 574.24 551.626 579.628C550.061 584.969 547.459 588.999 543.821 591.716C540.229 594.386 535.371 595.722 529.246 595.722Z" fill="#345E40"/>
<path d="M563.853 594.271L581.812 472.701H602.051L621.46 594.271H606.402L603.156 571.684H582.157L579.187 594.271H563.853ZM583.815 558.767H601.291L592.311 495.841H592.104L583.815 558.767Z" fill="#345E40"/>
<path d="M633.894 594.271V472.701H653.096L671.194 566.434L688.393 472.701H707.665V594.271H693.712V548.544L694.679 504.751L677.134 594.064H665.046L646.811 504.751L647.778 548.544V594.271H633.894Z" fill="#345E40"/>
<path d="M727.006 594.271V472.701H752.909C757.744 472.701 761.704 473.484 764.789 475.049C767.875 476.569 770.269 478.825 771.973 481.819C773.677 484.812 774.851 488.45 775.496 492.732C776.187 497.015 776.532 501.873 776.532 507.307V509.448C776.532 517.461 775.864 524.23 774.529 529.756C773.239 535.236 770.914 539.403 767.552 542.258C764.191 545.068 759.402 546.472 753.185 546.472H743.031V594.271H727.006ZM743.031 533.141H750.767C753.53 533.141 755.602 532.404 756.984 530.93C758.411 529.411 759.356 526.924 759.816 523.47C760.323 519.971 760.576 515.274 760.576 509.379V507.031C760.576 499.709 759.977 494.252 758.78 490.66C757.629 487.068 755.05 485.272 751.044 485.272H743.031V533.141Z" fill="#345E40"/>
<path d="M790.278 594.271V472.701H806.372V594.271H790.278Z" fill="#345E40"/>
<path d="M825.782 594.271V472.701H838.146L865.292 551.376L863.911 517.046V472.701H878.209V594.271H866.605L839.666 514.145L840.564 545.298V594.271H825.782Z" fill="#345E40"/>
<path d="M918.963 595.446C911.825 595.446 906.207 592.568 902.109 586.811C898.056 581.009 896.03 571.523 896.03 558.353V506.547C896.03 501.205 896.468 496.37 897.343 492.042C898.218 487.713 899.645 484.006 901.625 480.921C903.605 477.835 906.253 475.487 909.569 473.875C912.93 472.217 917.052 471.388 921.933 471.388C927.137 471.388 931.304 472.217 934.436 473.875C937.613 475.533 940.031 477.927 941.688 481.059C943.392 484.144 944.52 487.897 945.073 492.318C945.672 496.693 945.971 501.597 945.971 507.031V516.079H930.706V501.574C930.706 495.864 930.13 491.719 928.979 489.14C927.827 486.516 925.525 485.203 922.071 485.203C918.341 485.203 915.739 486.746 914.266 489.831C912.838 492.87 912.125 498.304 912.125 506.133V557.938C912.125 566.55 912.723 572.72 913.92 576.45C915.164 580.134 917.743 581.976 921.657 581.976C925.433 581.976 928.035 580.111 929.462 576.381C930.89 572.605 931.604 566.319 931.604 557.524V541.43H921.933V529.411H945.971V594.271H938.096L935.817 583.841C934.62 587.571 932.525 590.449 929.531 592.475C926.538 594.456 923.015 595.446 918.963 595.446Z" fill="#345E40"/>
<path fill-rule="evenodd" clip-rule="evenodd" d="M462.658 0.000447635C465.084 -0.0294016 467.277 1.43592 468.179 3.68772L552.478 214.332L592.125 108.609C592.984 106.318 595.173 104.801 597.619 104.801C600.065 104.801 602.255 106.318 603.114 108.609L708.886 390.682L697.898 394.803L597.619 127.381L558.151 232.63C557.3 234.898 555.143 236.411 552.721 236.437C550.298 236.464 548.108 234.999 547.208 232.75L462.931 22.1623L394.975 204.883C394.187 207.001 392.253 208.478 390.002 208.681C387.751 208.884 385.584 207.777 384.43 205.834L355.42 156.997L250.688 395.105L239.946 390.38L349.269 141.832C350.154 139.82 352.09 138.471 354.284 138.338C356.478 138.204 358.563 139.308 359.686 141.198L388.253 189.29L457.231 3.82246C458.076 1.54917 460.233 0.0302969 462.658 0.000447635Z" fill="#345E40"/>
<path d="M333.336 192.634L346.156 204.818L357.518 191.064L370.749 203.024L381.364 189.158L354.64 144.195L333.336 192.634Z" fill="#345E40"/>
<path d="M436.904 85.5897L449.724 100.988L463.703 83.2351L481.418 101.885L490.127 80.4693L460.526 13.7166L436.904 85.5897Z" fill="#345E40"/>
<path d="M572.167 188.522L584.986 203.921L598.965 186.205L616.681 204.818L625.389 183.402L595.788 116.686L572.167 188.522Z" fill="#345E40"/>
<path d="M424.533 257.742L339.055 391.621H509.973L424.533 257.742Z" fill="#97A483"/>
<path opacity="0.4" d="M424.533 302.667L375.085 391.621H473.981L424.533 302.667Z" fill="#F7F2DB"/>
<path d="M424.533 302.667L401.696 391.621H447.369L424.533 302.667Z" fill="#F7F2DB"/>
<path opacity="0.72" d="M524.176 257.742H438.698L524.176 391.621H609.617L524.176 257.742Z" fill="#97A483"/>
<path fill-rule="evenodd" clip-rule="evenodd" d="M196.579 392.742C196.579 390.822 198.136 389.266 200.055 389.266H748.616C750.536 389.266 752.092 390.822 752.092 392.742C752.092 394.662 750.536 396.218 748.616 396.218H200.055C198.136 396.218 196.579 394.662 196.579 392.742Z" fill="#345E40"/>
<path fill-rule="evenodd" clip-rule="evenodd" d="M196.579 663.416C196.579 661.279 198.311 659.547 200.448 659.547H743.627C745.763 659.547 747.495 661.279 747.495 663.416C747.495 665.552 745.763 667.284 743.627 667.284H200.448C198.311 667.284 196.579 665.552 196.579 663.416Z" fill="#345E40"/>
<path d="M472.018 642.859L442.828 663.453L472.018 684.01L501.209 663.453L472.018 642.859Z" fill="#345E40"/>
</svg>
